<svg xmlns="http://www.w3.org/2000/svg" viewBox="0 0 320 120">
  <defs>
    <linearGradient id="ag" x1="0" y1="0" x2="1" y2="1">
      <stop offset="0" stop-color="#ff71ce"/>
      <stop offset=".5" stop-color="#01cdfe"/>
      <stop offset="1" stop-color="#05ffa1"/>
    </linearGradient>
  </defs>
  <rect width="320" height="120" rx="3" fill="#0d141b" stroke="#1f2c38" stroke-width="1"/>
  <g font-family="monospace" font-size="9" text-anchor="middle">
    <rect x="18" y="34" width="62" height="52" rx="3" fill="#0a1016" stroke="#ff71ce" stroke-width="1.5"/>
    <text x="49" y="55" fill="#ff71ce">MCP</text>
    <text x="49" y="70" fill="#5c6d7e" font-size="7">CLI SKILL</text>
    <rect x="100" y="34" width="62" height="52" rx="3" fill="#0a1016" stroke="#01cdfe" stroke-width="1.5"/>
    <text x="131" y="55" fill="#01cdfe">API</text>
    <text x="131" y="70" fill="#5c6d7e" font-size="7">RAG RPA</text>
    <rect x="182" y="34" width="62" height="52" rx="3" fill="#0a1016" stroke="#05ffa1" stroke-width="1.5"/>
    <text x="213" y="55" fill="#05ffa1">AGENT</text>
    <text x="213" y="70" fill="#5c6d7e" font-size="7">WORKFLOW</text>
    <rect x="264" y="34" width="40" height="52" rx="3" fill="#0a1016" stroke="#e0b477" stroke-width="1.5"/>
    <text x="284" y="55" fill="#e0b477">KB</text>
    <text x="284" y="70" fill="#5c6d7e" font-size="7">KNOW</text>
  </g>
  <g stroke="url(#ag)" stroke-width="2" fill="none">
    <path d="M80 60h20" marker-end="url(#ag2)"/>
    <path d="M162 60h20" marker-end="url(#ag2)"/>
    <path d="M244 60h20" marker-end="url(#ag2)"/>
  </g>
  <defs><marker id="ag2" markerWidth="8" markerHeight="8" refX="6" refY="3" orient="auto"><path d="M0 0L6 3L0 6z" fill="#01cdfe"/></marker></defs>
  <path d="M20 105h280" stroke="#1f2c38" stroke-width="1"/>
  <path d="M25 112h90M160 112h70" stroke="#3a4c5c" stroke-width="3" stroke-linecap="round"/>
</svg>